<?xml version="1.0" standalone="no"?><!DOCTYPE svg PUBLIC "-//W3C//DTD SVG 1.1//EN" "http://www.w3.org/Graphics/SVG/1.1/DTD/svg11.dtd"><svg t="1605518096462" class="icon" viewBox="0 0 1024 1024" version="1.1" xmlns="http://www.w3.org/2000/svg" p-id="1234" xmlns:xlink="http://www.w3.org/1999/xlink" width="200" height="200"><defs><style type="text/css"></style></defs><path d="M800 960H224c-52.928 0-96-43.072-96-96V224c0-52.928 43.072-96 96-96h448c17.696 0 32 14.336 32 32s-14.304 32-32 32H224c-17.632 0-32 14.368-32 32v640c0 17.664 14.368 32 32 32h576c17.664 0 32-14.336 32-32V352c0-17.664 14.304-32 32-32s32 14.336 32 32v512c0 52.928-43.072 96-96 96zM511.68 542.72c-8.256 0-16.512-3.168-22.752-9.504-12.416-12.576-12.32-32.832 0.256-45.248L907.488 74.24c12.608-12.448 32.832-12.288 45.248 0.256 12.448 12.576 12.32 32.832-0.256 45.248L534.176 533.472c-6.24 6.176-14.368 9.248-22.496 9.248z" fill="#1fb6b9" p-id="1235"></path></svg>