<?xml version="1.0" standalone="no"?><!DOCTYPE svg PUBLIC "-//W3C//DTD SVG 1.1//EN" "http://www.w3.org/Graphics/SVG/1.1/DTD/svg11.dtd"><svg t="1605451257084" class="icon" viewBox="0 0 1024 1024" version="1.1" xmlns="http://www.w3.org/2000/svg" p-id="2226" xmlns:xlink="http://www.w3.org/1999/xlink" width="200" height="200"><defs><style type="text/css"></style></defs><path d="M752 528H672a32 32 0 0 1 0-64h80a32 32 0 0 1 0 64zM560 464a32 32 0 1 0 32 32 32 32 0 0 0-32-32zM736 368a32 32 0 0 1-32-32V152a32 32 0 0 0-32-32H352a32 32 0 0 0-32 32v184a32 32 0 0 1-64 0V152A96 96 0 0 1 352 56h320a96 96 0 0 1 96 96v184a32 32 0 0 1-32 32z" p-id="2227" fill="#1fb6b9"></path><path d="M816 848H736v-64h80a32 32 0 0 0 32-32V432a32 32 0 0 0-32-32H208a32 32 0 0 0-32 32v320a32 32 0 0 0 32 32h64a32 32 0 0 1 0 64h-64a96 96 0 0 1-96-96V432a96 96 0 0 1 96-96h608a96 96 0 0 1 96 96v320a96 96 0 0 1-96 96z" p-id="2228" fill="#1fb6b9"></path><path d="M672 968H352a96 96 0 0 1-96-96V744a96 96 0 0 1 96-96h320a96 96 0 0 1 96 96v128a96 96 0 0 1-96 96zM352 712a32 32 0 0 0-32 32v128a32 32 0 0 0 32 32h320a32 32 0 0 0 32-32V744a32 32 0 0 0-32-32H352z" p-id="2229" fill="#1fb6b9"></path></svg>