<?xml version="1.0" standalone="no"?><!DOCTYPE svg PUBLIC "-//W3C//DTD SVG 1.1//EN" "http://www.w3.org/Graphics/SVG/1.1/DTD/svg11.dtd"><svg t="1605455376444" class="icon" viewBox="0 0 1024 1024" version="1.1" xmlns="http://www.w3.org/2000/svg" p-id="7311" xmlns:xlink="http://www.w3.org/1999/xlink" width="200" height="200"><defs><style type="text/css"></style></defs><path d="M1002.666667 260.266667c-12.8-8.533333-29.866667-4.266667-42.666667 4.266666L725.333333 430.933333V298.666667c0-72.533333-55.466667-128-128-128H128C55.466667 170.666667 0 226.133333 0 298.666667v426.666666c0 72.533333 55.466667 128 128 128h469.333333c72.533333 0 128-55.466667 128-128v-132.266666l230.4 166.4c8.533333 4.266667 17.066667 8.533333 25.6 8.533333s12.8 0 21.333334-4.266667c12.8-8.533333 21.333333-21.333333 21.333333-38.4V298.666667c0-17.066667-8.533333-29.866667-21.333333-38.4zM640 725.333333c0 25.6-17.066667 42.666667-42.666667 42.666667H128c-25.6 0-42.666667-17.066667-42.666667-42.666667V298.666667c0-25.6 17.066667-42.666667 42.666667-42.666667h469.333333c25.6 0 42.666667 17.066667 42.666667 42.666667v426.666666z m298.666667-81.066666L755.2 512 938.666667 379.733333v264.533334z" p-id="7312" fill="#1fb6b9"></path></svg>