<svg xmlns="http://www.w3.org/2000/svg" viewBox="0 0 94.53 91.88"><defs><style>.cls-1,.cls-2,.cls-3,.cls-4{stroke:#000;}.cls-1,.cls-3,.cls-4{stroke-miterlimit:10;}.cls-1,.cls-3{stroke-width:4px;}.cls-2,.cls-3{fill:#fff;}.cls-2{stroke-miterlimit:10;stroke-width:4px;}.cls-4{fill:#65c8d0;stroke-width:3px;}</style></defs><title>Asset 1</title><g id="Layer_2" data-name="Layer 2"><g id="Layer_1-2" data-name="Layer 1"><path class="cls-1" d="M32.37,71.56,20,55.76a12,12,0,0,1,2.1-16.9L52.67,15a12,12,0,0,1,16.9,2.1L82,32.86a12.06,12.06,0,0,1-2,16.9l-30.6,23.9A12.27,12.27,0,0,1,32.37,71.56Z"/><rect class="cls-2" x="29.13" y="27.16" width="45.1" height="36.1" transform="matrix(0.79, -0.62, 0.62, 0.79, -16.88, 41.45)"/><ellipse class="cls-3" cx="30.01" cy="62.23" rx="4.63" ry="4.58"/><path class="cls-4" d="M20.37,41.86c-2.61,32.17,24.57,31.21,30,30.7A3.07,3.07,0,0,0,52,71.92l4.68-3.61a3.16,3.16,0,0,1,.71-.42,107.62,107.62,0,0,1,15.58-4.62,3.12,3.12,0,0,0,2.35-2.34C78.53,47.63,87.2,49.23,90,50.13a3,3,0,0,1,1.4.94l.88,1A3.12,3.12,0,0,1,93,54.53C87.79,92.6,46.87,90.36,46.87,90.36-3.21,88.28,1.21,39.42,1.9,33.7a3.25,3.25,0,0,1,.29-1C7.36,22,13.69,16.2,18,13.21a3.13,3.13,0,0,1,4.9,2.58V37.54a3.15,3.15,0,0,1-3,3.13,26.55,26.55,0,0,1-5.25-.33A3.13,3.13,0,0,1,12,37.24V27.46"/><path class="cls-4" d="M28.88,8.76a11.16,11.16,0,0,1,8.45-5.2,1.63,1.63,0,0,1,1.84,1.61V27a1.6,1.6,0,0,1-.75,1.36c-2.22,1.41-8.68,5-9.75-.49V9.56A1.59,1.59,0,0,1,28.88,8.76Z"/><path class="cls-4" d="M46.63,2.39a12,12,0,0,1,8.86-.06,3.38,3.38,0,0,1,2,3.13V24.2a3.45,3.45,0,0,1-2.15,3.21,17.58,17.58,0,0,1-7.71.95,3.47,3.47,0,0,1-3.24-3.46V5.65A3.47,3.47,0,0,1,46.63,2.39Z"/><path class="cls-4" d="M63.47,5.56v16.1s3.5,5.7,12.2,0v-10a5,5,0,0,0-1.45-3.52C72.26,6.24,68.46,3.53,63.47,5.56Z"/></g></g></svg>